<svg width="32" height="32" viewBox="0 0 32 32" fill="none" xmlns="http://www.w3.org/2000/svg">
<path fill-rule="evenodd" clip-rule="evenodd" d="M23.8518 19.9588L25.0998 19.3601C28.4707 17.7432 30 15.5588 30 13.6292C30 11.9457 28.8561 10.0828 26.2824 8.53393C23.7476 7.00843 20.1171 6 16 6C11.883 6 8.25238 7.00843 5.71758 8.53393C3.14391 10.0828 2 11.9457 2 13.6292C2 15.3127 3.14391 17.1756 5.71758 18.7245C8.25238 20.25 11.883 21.2584 16 21.2584C16.7905 21.2584 17.5652 21.2212 18.3193 21.1497L19.0824 21.0774L24.287 24.9325L23.8518 19.9588ZM25.9648 21.1634L26.4491 26.6975C26.5361 27.6922 25.5441 28.3526 24.7957 27.7983L18.5079 23.1408C17.6908 23.2182 16.8532 23.2584 16 23.2584C7.16344 23.2584 0 18.9473 0 13.6292C0 8.31114 7.16344 4 16 4C24.8366 4 32 8.31114 32 13.6292C32 16.6798 29.6428 19.3991 25.9648 21.1634Z" fill="#FFFEFE"/>
<path d="M12 13.5C12 14.3284 11.3284 15 10.5 15C9.67157 15 9 14.3284 9 13.5C9 12.6716 9.67157 12 10.5 12C11.3284 12 12 12.6716 12 13.5Z" fill="#FFFEFE"/>
<path d="M17.25 13.5C17.25 14.3284 16.5784 15 15.75 15C14.9216 15 14.25 14.3284 14.25 13.5C14.25 12.6716 14.9216 12 15.75 12C16.5784 12 17.25 12.6716 17.25 13.5Z" fill="#FFFEFE"/>
<path d="M22.5 13.5C22.5 14.3284 21.8284 15 21 15C20.1716 15 19.5 14.3284 19.5 13.5C19.5 12.6716 20.1716 12 21 12C21.8284 12 22.5 12.6716 22.5 13.5Z" fill="#FFFEFE"/>
</svg>
