<svg width="30" height="20" viewBox="0 0 30 20" fill="none" xmlns="http://www.w3.org/2000/svg">
<path d="M6.50213 13V7.90909H8.45099C8.81889 7.90909 9.12464 7.96709 9.36825 8.0831C9.61352 8.19744 9.79664 8.35405 9.91761 8.55291C10.0402 8.75178 10.1016 8.97715 10.1016 9.22905C10.1016 9.4362 10.0618 9.61352 9.98224 9.76101C9.9027 9.90684 9.79581 10.0253 9.66158 10.1165C9.52734 10.2076 9.37737 10.2731 9.21165 10.3129V10.3626C9.39228 10.3725 9.56546 10.428 9.73118 10.5291C9.89856 10.6286 10.0353 10.7694 10.1413 10.9517C10.2474 11.134 10.3004 11.3544 10.3004 11.6129C10.3004 11.8764 10.2366 12.1134 10.109 12.3239C9.98142 12.5327 9.78918 12.6976 9.53232 12.8185C9.27545 12.9395 8.9523 13 8.56286 13H6.50213ZM7.42436 12.2294H8.41619C8.75095 12.2294 8.99207 12.1656 9.13956 12.038C9.28871 11.9087 9.36328 11.743 9.36328 11.5408C9.36328 11.39 9.32599 11.2541 9.25142 11.1332C9.17685 11.0105 9.07079 10.9144 8.93324 10.8448C8.79569 10.7736 8.63163 10.7379 8.44105 10.7379H7.42436V12.2294ZM7.42436 10.0742H8.33665C8.49574 10.0742 8.63909 10.0452 8.76669 9.98722C8.89429 9.92756 8.99456 9.84387 9.06747 9.73615C9.14205 9.62678 9.17933 9.49751 9.17933 9.34837C9.17933 9.15116 9.10973 8.98875 8.97053 8.86115C8.83298 8.73355 8.62831 8.66974 8.35653 8.66974H7.42436V10.0742ZM11.9565 13H10.9721L12.7644 7.90909H13.9029L15.6976 13H14.7132L13.3535 8.95312H13.3137L11.9565 13ZM11.9888 11.0039H14.6735V11.7447H11.9888V11.0039ZM19.2528 9.30859C19.2296 9.0915 19.1318 8.92247 18.9595 8.80149C18.7888 8.68052 18.5667 8.62003 18.2933 8.62003C18.1011 8.62003 17.9362 8.64903 17.7986 8.70703C17.6611 8.76503 17.5558 8.84375 17.4829 8.94318C17.41 9.04261 17.3727 9.15613 17.3711 9.28374C17.3711 9.3898 17.3951 9.48177 17.4431 9.55966C17.4929 9.63755 17.56 9.70384 17.6445 9.75852C17.729 9.81155 17.8226 9.8563 17.9254 9.89276C18.0281 9.92921 18.1317 9.95987 18.2361 9.98473L18.7134 10.104C18.9056 10.1488 19.0904 10.2093 19.2677 10.2855C19.4467 10.3617 19.6066 10.4579 19.7475 10.5739C19.89 10.6899 20.0027 10.8299 20.0855 10.994C20.1684 11.158 20.2098 11.3503 20.2098 11.5707C20.2098 11.869 20.1336 12.1316 19.9811 12.3587C19.8287 12.584 19.6083 12.7605 19.3199 12.8881C19.0332 13.0141 18.686 13.0771 18.2784 13.0771C17.8823 13.0771 17.5384 13.0157 17.2468 12.8931C16.9568 12.7705 16.7297 12.5915 16.5657 12.3562C16.4033 12.1209 16.3154 11.8342 16.3022 11.4961H17.2095C17.2227 11.6734 17.2774 11.8209 17.3735 11.9386C17.4697 12.0562 17.5948 12.1441 17.7489 12.2021C17.9047 12.2601 18.0787 12.2891 18.2709 12.2891C18.4714 12.2891 18.6471 12.2592 18.7979 12.1996C18.9504 12.1383 19.0697 12.0537 19.1559 11.946C19.242 11.8366 19.2859 11.709 19.2876 11.5632C19.2859 11.4306 19.247 11.3213 19.1708 11.2351C19.0945 11.1473 18.9877 11.0743 18.8501 11.0163C18.7142 10.9567 18.5551 10.9036 18.3728 10.8572L17.7936 10.7081C17.3744 10.6004 17.0429 10.4371 16.7993 10.2184C16.5574 9.99799 16.4364 9.70549 16.4364 9.34091C16.4364 9.04096 16.5176 8.77829 16.68 8.55291C16.8441 8.32753 17.067 8.1527 17.3487 8.02841C17.6304 7.90246 17.9494 7.83949 18.3057 7.83949C18.667 7.83949 18.9835 7.90246 19.2553 8.02841C19.5287 8.1527 19.7433 8.32588 19.8991 8.54794C20.0549 8.76835 20.1353 9.0219 20.1402 9.30859H19.2528ZM21.232 13V7.90909H24.5431V8.68217H22.1542V10.0643H24.3716V10.8374H22.1542V12.2269H24.563V13H21.232Z" fill="white"/>
<path fill-rule="evenodd" clip-rule="evenodd" d="M4.6875 1.81818C3.1342 1.81818 1.875 3.03922 1.875 4.54545V15.4545C1.875 16.9608 3.1342 18.1818 4.6875 18.1818H7.96875C8.48652 18.1818 8.90625 18.5888 8.90625 19.0909C8.90625 19.593 8.48652 20 7.96875 20H4.6875C2.09867 20 0 17.9649 0 15.4545V4.54545C0 2.03507 2.09867 0 4.6875 0H7.96875C8.48652 0 8.90625 0.407014 8.90625 0.909091C8.90625 1.41117 8.48652 1.81818 7.96875 1.81818H4.6875ZM21.0938 0.909091C21.0938 0.407014 21.5135 0 22.0312 0H25.3125C27.9013 0 30 2.03507 30 4.54545V15.4545C30 17.9649 27.9013 20 25.3125 20H22.0312C21.5135 20 21.0938 19.593 21.0938 19.0909C21.0938 18.5888 21.5135 18.1818 22.0312 18.1818H25.3125C26.8658 18.1818 28.125 16.9608 28.125 15.4545V4.54545C28.125 3.03922 26.8658 1.81818 25.3125 1.81818H22.0312C21.5135 1.81818 21.0938 1.41117 21.0938 0.909091Z" fill="white"/>
</svg>
