<svg width="30" height="20" viewBox="0 0 30 20" fill="none" xmlns="http://www.w3.org/2000/svg">
<path d="M8.50213 13V7.90909H10.4112C10.8023 7.90909 11.1304 7.98201 11.3956 8.12784C11.6624 8.27367 11.8638 8.47419 11.9996 8.7294C12.1372 8.98295 12.206 9.27131 12.206 9.59446C12.206 9.92093 12.1372 10.2109 11.9996 10.4645C11.8621 10.718 11.6591 10.9177 11.3906 11.0636C11.1222 11.2077 10.7915 11.2798 10.3988 11.2798H9.13352V10.5217H10.2745C10.5032 10.5217 10.6905 10.4819 10.8363 10.4023C10.9821 10.3228 11.0898 10.2134 11.1594 10.0742C11.2307 9.93501 11.2663 9.77509 11.2663 9.59446C11.2663 9.41383 11.2307 9.25473 11.1594 9.11719C11.0898 8.97964 10.9813 8.87275 10.8338 8.79652C10.688 8.71863 10.4999 8.67969 10.2695 8.67969H9.42436V13H8.50213ZM13.207 13V7.90909H15.1161C15.5072 7.90909 15.8353 7.97704 16.1005 8.11293C16.3673 8.24882 16.5686 8.43939 16.7045 8.68466C16.8421 8.92827 16.9108 9.21248 16.9108 9.53729C16.9108 9.86375 16.8412 10.1471 16.702 10.3874C16.5645 10.6261 16.3615 10.8108 16.093 10.9418C15.8246 11.071 15.4948 11.1357 15.1037 11.1357H13.7439V10.37H14.9794C15.2081 10.37 15.3953 10.3385 15.5412 10.2756C15.687 10.2109 15.7947 10.1173 15.8643 9.99467C15.9356 9.87038 15.9712 9.71792 15.9712 9.53729C15.9712 9.35665 15.9356 9.20253 15.8643 9.07493C15.7931 8.94567 15.6845 8.84789 15.5387 8.7816C15.3929 8.71366 15.2048 8.67969 14.9744 8.67969H14.1292V13H13.207ZM15.837 10.6932L17.0973 13H16.0682L14.8302 10.6932H15.837ZM22.5088 10.4545C22.5088 11.0031 22.406 11.4729 22.2005 11.864C21.9967 12.2534 21.7183 12.5517 21.3653 12.7589C21.014 12.966 20.6154 13.0696 20.1696 13.0696C19.7238 13.0696 19.3244 12.966 18.9715 12.7589C18.6201 12.5501 18.3417 12.2509 18.1362 11.8615C17.9324 11.4704 17.8305 11.0014 17.8305 10.4545C17.8305 9.90601 17.9324 9.43703 18.1362 9.04759C18.3417 8.65649 18.6201 8.35736 18.9715 8.15021C19.3244 7.94306 19.7238 7.83949 20.1696 7.83949C20.6154 7.83949 21.014 7.94306 21.3653 8.15021C21.7183 8.35736 21.9967 8.65649 22.2005 9.04759C22.406 9.43703 22.5088 9.90601 22.5088 10.4545ZM21.5816 10.4545C21.5816 10.0684 21.5211 9.74278 21.4001 9.47763C21.2808 9.21082 21.1151 9.00947 20.9029 8.87358C20.6908 8.73603 20.4464 8.66726 20.1696 8.66726C19.8929 8.66726 19.6484 8.73603 19.4363 8.87358C19.2242 9.00947 19.0576 9.21082 18.9367 9.47763C18.8173 9.74278 18.7577 10.0684 18.7577 10.4545C18.7577 10.8407 18.8173 11.1671 18.9367 11.4339C19.0576 11.6991 19.2242 11.9004 19.4363 12.038C19.6484 12.1739 19.8929 12.2418 20.1696 12.2418C20.4464 12.2418 20.6908 12.1739 20.9029 12.038C21.1151 11.9004 21.2808 11.6991 21.4001 11.4339C21.5211 11.1671 21.5816 10.8407 21.5816 10.4545Z" fill="white"/>
<path fill-rule="evenodd" clip-rule="evenodd" d="M4.6875 1.81818C3.1342 1.81818 1.875 3.03922 1.875 4.54545V15.4545C1.875 16.9608 3.1342 18.1818 4.6875 18.1818H7.96875C8.48652 18.1818 8.90625 18.5888 8.90625 19.0909C8.90625 19.593 8.48652 20 7.96875 20H4.6875C2.09867 20 0 17.9649 0 15.4545V4.54545C0 2.03507 2.09867 0 4.6875 0H7.96875C8.48652 0 8.90625 0.407014 8.90625 0.909091C8.90625 1.41117 8.48652 1.81818 7.96875 1.81818H4.6875ZM21.0938 0.909091C21.0938 0.407014 21.5135 0 22.0312 0H25.3125C27.9013 0 30 2.03507 30 4.54545V15.4545C30 17.9649 27.9013 20 25.3125 20H22.0312C21.5135 20 21.0938 19.593 21.0938 19.0909C21.0938 18.5888 21.5135 18.1818 22.0312 18.1818H25.3125C26.8658 18.1818 28.125 16.9608 28.125 15.4545V4.54545C28.125 3.03922 26.8658 1.81818 25.3125 1.81818H22.0312C21.5135 1.81818 21.0938 1.41117 21.0938 0.909091Z" fill="white"/>
</svg>
