<svg width="30" height="20" viewBox="0 0 30 20" fill="none" xmlns="http://www.w3.org/2000/svg">
<path d="M6.50213 13V7.90909H9.76349V8.68217H7.42436V10.0643H9.53977V10.8374H7.42436V13H6.50213ZM10.8037 13V7.90909H12.7128C13.1039 7.90909 13.432 7.97704 13.6972 8.11293C13.964 8.24882 14.1653 8.43939 14.3012 8.68466C14.4388 8.92827 14.5075 9.21248 14.5075 9.53729C14.5075 9.86375 14.4379 10.1471 14.2987 10.3874C14.1612 10.6261 13.9582 10.8108 13.6897 10.9418C13.4212 11.071 13.0915 11.1357 12.7004 11.1357H11.3406V10.37H12.5761C12.8048 10.37 12.992 10.3385 13.1379 10.2756C13.2837 10.2109 13.3914 10.1173 13.461 9.99467C13.5323 9.87038 13.5679 9.71792 13.5679 9.53729C13.5679 9.35665 13.5323 9.20253 13.461 9.07493C13.3897 8.94567 13.2812 8.84789 13.1354 8.7816C12.9895 8.71366 12.8014 8.67969 12.5711 8.67969H11.7259V13H10.8037ZM13.4337 10.6932L14.694 13H13.6648L12.4269 10.6932H13.4337ZM15.5564 13V7.90909H18.8675V8.68217H16.4787V10.0643H18.696V10.8374H16.4787V12.2269H18.8874V13H15.5564ZM20.0084 13V7.90909H23.3195V8.68217H20.9306V10.0643H23.1479V10.8374H20.9306V12.2269H23.3393V13H20.0084Z" fill="white"/>
<path fill-rule="evenodd" clip-rule="evenodd" d="M4.6875 1.81818C3.1342 1.81818 1.875 3.03922 1.875 4.54545V15.4545C1.875 16.9608 3.1342 18.1818 4.6875 18.1818H7.96875C8.48652 18.1818 8.90625 18.5888 8.90625 19.0909C8.90625 19.593 8.48652 20 7.96875 20H4.6875C2.09867 20 0 17.9649 0 15.4545V4.54545C0 2.03507 2.09867 0 4.6875 0H7.96875C8.48652 0 8.90625 0.407014 8.90625 0.909091C8.90625 1.41117 8.48652 1.81818 7.96875 1.81818H4.6875ZM21.0938 0.909091C21.0938 0.407014 21.5135 0 22.0312 0H25.3125C27.9013 0 30 2.03507 30 4.54545V15.4545C30 17.9649 27.9013 20 25.3125 20H22.0312C21.5135 20 21.0938 19.593 21.0938 19.0909C21.0938 18.5888 21.5135 18.1818 22.0312 18.1818H25.3125C26.8658 18.1818 28.125 16.9608 28.125 15.4545V4.54545C28.125 3.03922 26.8658 1.81818 25.3125 1.81818H22.0312C21.5135 1.81818 21.0938 1.41117 21.0938 0.909091Z" fill="white"/>
</svg>
