<svg width="32" height="32" viewBox="0 0 32 32" fill="none" xmlns="http://www.w3.org/2000/svg">
<path fill-rule="evenodd" clip-rule="evenodd" d="M23.9917 5H8.00827C6.68081 5 5.58015 6.00855 5.46101 7.31548L4.01083 23.2246C3.87549 24.7093 5.04847 26 6.55809 26H25.4419C26.9515 26 28.1245 24.7093 27.9892 23.2246L26.539 7.31548C26.4199 6.00855 25.3192 5 23.9917 5ZM8.00827 3C5.651 3 3.68269 4.79266 3.46927 7.13393L2.01909 23.043C1.77645 25.7049 3.87801 28 6.55809 28H25.4419C28.122 28 30.2236 25.7049 29.9809 23.043L28.5307 7.13393C28.3173 4.79266 26.349 3 23.9917 3H8.00827Z" fill="#FFFDFD"/>
<path fill-rule="evenodd" clip-rule="evenodd" d="M11 9C11.5523 9 12 9.44772 12 10C12 12.2091 13.7909 14 16 14C18.2091 14 20 12.2091 20 10C20 9.44772 20.4477 9 21 9C21.5523 9 22 9.44772 22 10C22 13.3137 19.3137 16 16 16C12.6863 16 10 13.3137 10 10C10 9.44772 10.4477 9 11 9Z" fill="#FFFDFD"/>
</svg>
