<svg width="35" height="30" viewBox="0 0 35 30" fill="none" xmlns="http://www.w3.org/2000/svg">
<path d="M24.3154 3.6541C23.8708 3.24109 23.8708 2.57147 24.3154 2.15846L26.3057 0.309756C26.7503 -0.103252 27.4712 -0.103252 27.9158 0.309756C28.3605 0.722764 28.3605 1.39238 27.9158 1.80539L25.9256 3.6541C25.4809 4.0671 24.76 4.0671 24.3154 3.6541Z" fill="white"/>
<path fill-rule="evenodd" clip-rule="evenodd" d="M18.2089 1.94293C19.286 0.933383 21.1072 1.1783 21.8318 2.43017L30.0801 16.6793C30.8048 17.9312 30.0205 19.4774 28.5198 19.7553L19.278 21.4668L20.8186 24.1282C21.4141 25.157 20.999 26.4396 19.8914 26.9928L14.376 29.7474C13.2683 30.3006 11.8876 29.915 11.292 28.8861L8.59612 24.2289L6.59109 25.2303C5.48343 25.7835 4.10269 25.3979 3.50712 24.369L0.271978 18.7802C-0.323595 17.7514 0.0915287 16.4689 1.19918 15.9156L3.20477 14.914C3.65885 14.6872 4.15882 14.6182 4.63178 14.6866C4.6839 14.6254 4.74006 14.5665 4.80021 14.5101L18.2089 1.94293ZM4.412 17.0007C4.40349 16.986 4.39519 16.9713 4.38709 16.9564L4.28315 16.7769L2.27756 17.7786L5.51271 23.3674L7.51774 22.366L4.412 17.0007ZM28.0746 17.681L9.39447 21.1405L6.41805 15.9986L19.8262 3.43184L28.0746 17.681ZM16.9429 21.8993L10.5214 23.0885L13.2976 27.8844L18.813 25.1298L16.9429 21.8993Z" fill="white"/>
<path d="M28.06 6.7106C27.4976 6.97181 27.2696 7.60707 27.5508 8.12949C27.832 8.65191 28.5159 8.86366 29.0784 8.60245L31.5959 7.43322C32.1583 7.17201 32.3863 6.53676 32.1051 6.01434C31.8238 5.49192 31.1399 5.28017 30.5775 5.54138L28.06 6.7106Z" fill="white"/>
<path d="M30.8477 12.2129C30.2403 12.3641 29.8799 12.944 30.0426 13.5082C30.2054 14.0724 30.8297 14.4072 31.4371 14.256L34.1558 13.5793C34.7632 13.4282 35.1237 12.8483 34.9609 12.2841C34.7982 11.7199 34.1739 11.3851 33.5665 11.5363L30.8477 12.2129Z" fill="white"/>
</svg>
